<?xml version="1.0" encoding="UTF-8"?>
<svg width="24px" height="22px" viewBox="0 0 24 22" version="1.1" xmlns="http://www.w3.org/2000/svg" xmlns:xlink="http://www.w3.org/1999/xlink">
    <!-- Generator: Sketch 54.1 (76490) - https://sketchapp.com -->
    <title>Artboard</title>
    <desc>Created with Sketch.</desc>
    <g id="Artboard" stroke="none" stroke-width="1" fill="none" fill-rule="evenodd">
        <g id="bofa_icon_deposit2_blk" fill="#919191">
            <polyline id="Fill-1" points="0 0 0 15.8888889 6 15.8888889 6 14.6666667 1.2 14.6666667 1.2 1.22222222 22.8 1.22222222 22.8 14.6666667 18 14.6666667 18 15.8888889 24 15.8888889 24 0 0 0"></polyline>
            <polygon id="Fill-2" points="3.6 12.2222222 21.6 12.2222222 21.6 11 3.6 11"></polygon>
            <path d="M15.6,7.33333333 L20.4,7.33333333 L20.4,6.11111111 L15.6,6.11111111 L15.6,7.33333333 Z M14.4,8.55555556 L21.6,8.55555556 L21.6,4.88888889 L14.4,4.88888889 L14.4,8.55555556 Z" id="Fill-3"></path>
            <polyline id="Fill-4" points="12.6 19.6606667 12.6 13.4444444 11.4 13.4444444 11.4 19.6606667 8.2248 16.4254444 7.3752 17.2895556 12 22 16.6248 17.2895556 15.7752 16.4254444 12.6 19.6606667"></polyline>
        </g>
    </g>
</svg>