<?xml version="1.0" encoding="UTF-8"?>
<svg width="42px" height="23px" viewBox="0 0 42 23" version="1.1" xmlns="http://www.w3.org/2000/svg" xmlns:xlink="http://www.w3.org/1999/xlink">
    <title>flagscape</title>
    <g id="Page-1" stroke="none" stroke-width="1" fill="none" fill-rule="evenodd">
        <g id="flagscape">
            <path d="M23.4881762,22.4525471 C23.5681877,22.4525471 23.6760879,22.4673699 23.6760879,22.3649933 C23.6760879,22.2922625 23.6132423,22.2845052 23.5403952,22.2845052 L23.39749,22.2845052 L23.39749,22.4525471 L23.4881762,22.4525471 Z M23.5018993,22 C23.7770351,22 24,22.2241217 24,22.4959237 C24,22.7769159 23.7770351,23 23.5018993,23 C23.2236861,23 23,22.7769159 23,22.4959237 C23,22.2241217 23.2236861,22 23.5018993,22 Z M23.5018993,22.098078 C23.2759052,22.098078 23.0948214,22.2770394 23.0948214,22.4959237 C23.0948214,22.7250358 23.2759052,22.9018726 23.5018993,22.9018726 C23.7248642,22.9018726 23.9028225,22.7250358 23.9028225,22.4959237 C23.9028225,22.2770394 23.7248642,22.098078 23.5018993,22.098078 Z M23.5575131,22.2198775 C23.6067029,22.2198775 23.6513728,22.2230397 23.6938789,22.2477939 C23.7355195,22.270374 23.7557148,22.3204753 23.7557148,22.3667721 C23.7557148,22.4772024 23.6792133,22.5174218 23.5788623,22.5209793 L23.7492715,22.780083 L23.6554599,22.780083 L23.4947156,22.5209793 L23.39749,22.5209793 L23.39749,22.780083 L23.3167572,22.780083 L23.3167572,22.2198775 L23.5575131,22.2198775 Z" id="registered-mark" fill="#E31837"></path>
            <path d="M38.5919265,7.60895008 C39.9712047,8.40826809 41.2047069,9.1442463 42,9.65719922 C36.8902727,11.6596593 27.5709623,17.2567714 20.9379938,23 C19.7885175,22.0514746 18.5769284,21.1041017 17.4026899,20.2425965 C24.2980451,14.7080383 32.0019034,9.80755923 38.5919265,7.60895008 Z M32.2592754,4.20965074 C33.4168331,4.78243332 34.3316377,5.26007521 35.3748124,5.79220296 C27.8676017,8.16259974 21.0483464,12.3663409 14.1330467,17.7866883 C13.0929803,17.0942988 12.0006437,16.2590411 11,15.6438224 C20.0935491,8.47594581 27.748919,5.36873259 32.2592754,4.20965074 Z M15.5471838,1.72099869 C18.4186728,2.39662333 22.6088812,3.93066219 23.799956,4.61723639 C22.9695398,4.9750094 21.7990312,5.4939348 20.9159305,5.89823035 C17.6003787,4.20041958 13.703432,3.15973969 12.6759539,2.86593518 C13.4985995,2.51602071 14.7000868,2.05090009 15.5471838,1.72099869 Z M20.938315,0 C23.6969751,0.700510008 26.7879052,1.80652054 29.2659437,2.86124101 C28.4190021,3.10165986 27.4148358,3.37765169 26.5756647,3.65259571 C22.3322537,1.74580024 19.1948036,1.0132274 18.2408352,0.777628453 C19.1828369,0.488224722 20.5069959,0.119292595 20.938315,0 Z" id="flagscape-red" fill="#E31837"></path>
            <path d="M15.094984,5.75627158 C15.9468942,6.11370225 17.0079798,6.5475884 18,6.9818674 C14.4475613,8.67420019 11.2369077,10.7789605 8.05677608,13 C7.03704638,12.4581825 6.08731959,11.9233377 5.18587604,11.4762916 C9.32016168,8.70543056 12.5801924,6.92421887 15.094984,5.75627158 Z M9.73936132,4 C10.3705854,4.17903451 11.3723456,4.44493464 12.4170763,4.7753088 C10.9423278,5.3841047 7.26207132,7.19988586 2.56984592,10.197118 C1.51735445,9.70960989 0.754197873,9.43089352 -7.10542736e-15,9.11171516 C2.12524419,7.84251467 6.0101966,5.61730132 9.73936132,4 Z" id="flagscape-blue" fill="#012169"></path>
        </g>
    </g>
</svg>