<?xml version="1.0" encoding="UTF-8"?>
<svg width="44px" height="44px" viewBox="0 0 44 44" version="1.1" xmlns="http://www.w3.org/2000/svg" xmlns:xlink="http://www.w3.org/1999/xlink">
    <title>Artboard</title>
    <g id="Artboard" stroke="none" stroke-width="1" fill="none" fill-rule="evenodd">
        <g id="Group">
            <circle id="Photo" stroke="#D5D5D5" fill="#FFFFFF" cx="22" cy="22" r="21.5"></circle>
            <g transform="translate(7.000000, 14.000000)" id="icon/identity/boa/color/mark/xsmall">
                <g id="flagscape" transform="translate(0.000018, 0.036023)">
                    <path d="M16.3349131,15.4263851 C16.3947382,15.4263851 16.4754157,15.4371997 16.4754157,15.362507 C16.4754157,15.3094435 16.4284257,15.3037838 16.3739576,15.3037838 L16.2671066,15.3037838 L16.2671066,15.4263851 L16.3349131,15.4263851 Z M16.345174,15.0962123 C16.5508945,15.0962123 16.7176065,15.2597288 16.7176065,15.4580322 C16.7176065,15.6630406 16.5508945,15.8258001 16.345174,15.8258001 C16.1371525,15.8258001 15.9699012,15.6630406 15.9699012,15.4580322 C15.9699012,15.2597288 16.1371525,15.0962123 16.345174,15.0962123 Z M16.345174,15.1677688 C16.176197,15.1677688 16.0407997,15.2983369 16.0407997,15.4580322 C16.0407997,15.6251896 16.176197,15.7542076 16.345174,15.7542076 C16.511886,15.7542076 16.6449464,15.6251896 16.6449464,15.4580322 C16.6449464,15.2983369 16.511886,15.1677688 16.345174,15.1677688 Z" id="registered-mark" fill="#E31837"></path>
                    <path d="M26.7875499,5.23555556 C27.7447866,5.78554916 28.6008529,6.29196 29.1527965,6.64491191 C25.6065804,8.02276179 19.1388599,11.8740148 14.535495,15.8258073 C13.7377438,15.1731473 12.8968855,14.5212803 12.081949,13.928497 C16.8674136,10.1202861 22.2139897,6.74837142 26.7875499,5.23555556 Z M22.3926091,2.8965705 C23.1959689,3.29068992 23.8308551,3.61934508 24.5548316,3.98549078 C19.3447314,5.61651003 14.6120811,8.50901425 9.81277482,12.2386392 C9.66841094,12.1433555 9.52259601,12.0441397 9.37612934,11.9429893 L8.49590269,11.3288543 C8.20414973,11.1270588 7.91618416,10.9335066 7.63840036,10.7641791 C13.9494396,5.83211675 19.2623641,3.69410989 22.3926091,2.8965705 Z M10.794204,1.18418234 C12.787054,1.64906518 15.6951123,2.70460445 16.5217334,3.17702145 C15.9454139,3.4231974 15.133066,3.78025885 14.5201828,4.05844596 C12.2191475,2.89021873 9.5146167,2.17414919 8.80153376,1.9719886 C9.37246031,1.73121995 10.2063079,1.41118042 10.794204,1.18418234 Z M14.5357179,0 C16.4502633,0.482005931 18.5954083,1.24302808 20.3151987,1.96875865 C19.7274104,2.13418571 19.0305061,2.32408977 18.4481107,2.51327286 C15.5031292,1.20124775 13.3256988,0.697180069 12.6636325,0.535069481 C13.3173938,0.335936973 14.236377,0.0820826792 14.5357179,0 Z" id="flagscape-red" fill="#E31837"></path>
                    <path d="M10.4194706,4.18161323 C11.0075105,4.44401105 11.7399359,4.76253654 12.4246883,5.08135043 C9.97258032,6.32372964 7.75639304,7.8688811 5.56127395,9.49939566 C4.85739487,9.10163533 4.20183601,8.70899389 3.57960517,8.38080737 C6.43333908,6.34665655 8.68360939,5.03902936 10.4194706,4.18161323 Z M6.72269602,2.89229513 C7.15840501,3.02372836 7.84988046,3.21893157 8.57101678,3.4614666 C7.55305619,3.90839723 5.01272068,5.24140264 1.77386302,7.44173754 C1.04736978,7.08384697 0.52059297,6.87923507 0,6.64491912 C1.46697203,5.71317077 4.14860107,4.07959207 6.72269602,2.89229513 Z" id="flagscape-blue" fill="#012169"></path>
                </g>
            </g>
        </g>
    </g>
</svg>