<?xml version="1.0" encoding="UTF-8"?>
<svg width="44px" height="44px" viewBox="0 0 44 44" version="1.1" xmlns="http://www.w3.org/2000/svg" xmlns:xlink="http://www.w3.org/1999/xlink">
    <title>Artboard</title>
    <g id="Artboard" stroke="none" stroke-width="1" fill="none" fill-rule="evenodd">
        <g id="core/icon/utility/large/44">
            <circle id="Photo" stroke="#D5D5D5" fill="#FFFFFF" cx="22" cy="22" r="21.5"></circle>
            <g id="core/icon/brand/payment-bill-pay" transform="translate(10.000000, 10.000000)" fill="#012169">
                <path d="M12,0 C16.1688,0 19.9776,2.1252 22.188,5.6832 L21.1692,6.3168 C19.1784,3.1128 15.7512,1.2 12,1.2 C6.0456,1.2 1.2,6.0456 1.2,12 C1.2,17.9544 6.0456,22.8 12,22.8 C15.7512,22.8 19.1784,20.8872 21.1692,17.6832 L22.188,18.3168 C19.9776,21.8748 16.1688,24 12,24 C5.3832,24 5.15143483e-14,18.6168 5.15143483e-14,12 C5.15143483e-14,5.3832 5.3832,0 12,0 Z M12.6,4.8 L12.6,7.128 C14.2332,7.3548 15.48,8.4804 15.48,9.84 L15.48,10.2 L14.28,10.2 L14.28,9.84 C14.28,8.994 13.236,8.28 12,8.28 C10.764,8.28 9.72,8.994 9.72,9.84 L9.72069689,9.91689173 C9.73045333,10.3080853 9.8768,11.12912 12.072,11.4024 C14.3328,11.6868 15.48,12.6144 15.48,14.16 C15.48,15.5196 14.2332,16.6452 12.6,16.872 L12.6,19.2 L11.4,19.2 L11.4,16.872 C9.7668,16.6452 8.52,15.5196 8.52,14.16 L8.52,13.8 L9.72,13.8 L9.72,14.16 C9.72,15.006 10.764,15.72 12,15.72 C13.236,15.72 14.28,15.006 14.28,14.16 C14.28,13.812 14.28,12.8892 11.922,12.5928 C9.6648,12.312 8.52,11.3868 8.52,9.84 C8.52,8.4804 9.7668,7.3548 11.4,7.128 L11.4,4.8 L12.6,4.8 Z M19.8156,7.8096 L24,12 L19.806,16.2012 L18.9576,15.3528 L21.7104,12.6 L16.8,12.6 L16.8,11.4 L21.7104,11.4 L18.9672,8.658 L19.8156,7.8096 Z" id="icon-payment-bill-pay"></path>
            </g>
        </g>
    </g>
</svg>