<?xml version="1.0" encoding="UTF-8"?>
<svg width="45px" height="45px" viewBox="0 0 45 45" version="1.1" xmlns="http://www.w3.org/2000/svg" xmlns:xlink="http://www.w3.org/1999/xlink">
    <title>icon_other_paybill</title>
    <g id="Page-1" stroke="none" stroke-width="1" fill="none" fill-rule="evenodd">
        <g id="Artboard" transform="translate(-179, -389)">
            <g id="icon_other_paybill" transform="translate(180, 390)">
                <g id="icon_bofa_paybill" fill="#FFFFFF" fill-rule="nonzero" stroke="#D5D5D5">
                    <circle id="Photo" cx="21.5" cy="21.5" r="21.5"></circle>
                </g>
                <g id="icon/brand/offer" transform="translate(12, 9)" fill="#646464">
                    <path d="M19,0 L19,24 L0,24 L0,0 L19,0 Z M17.8125,1.2 L1.1875,1.2 L1.1875,22.8 L17.8125,22.8 L17.8125,1.2 Z M10.09375,4.8 L10.09375,7.128 C11.7099375,7.3548 12.94375,8.4804 12.94375,9.84 L12.94375,10.2 L11.75625,10.2 L11.75625,9.84 C11.75625,8.994 10.723125,8.28 9.5,8.28 C8.276875,8.28 7.24375,8.994 7.24375,9.84 C7.24375,10.188 7.24375,11.1096 9.57125,11.4024 C11.8085,11.6868 12.94375,12.6144 12.94375,14.16 C12.94375,15.5196 11.7099375,16.6452 10.09375,16.872 L10.09375,19.2 L8.90625,19.2 L8.90625,16.872 C7.2900625,16.6452 6.05625,15.5196 6.05625,14.16 L6.05625,13.8 L7.24375,13.8 L7.24375,14.16 C7.24375,15.006 8.276875,15.72 9.5,15.72 C10.723125,15.72 11.75625,15.006 11.75625,14.16 C11.75625,13.812 11.75625,12.8892 9.4228125,12.5928 C7.189125,12.312 6.05625,11.3868 6.05625,9.84 C6.05625,8.4804 7.2900625,7.3548 8.90625,7.128 L8.90625,4.8 L10.09375,4.8 Z" id="icon-offer"></path>
                </g>
            </g>
        </g>
    </g>
</svg>