<?xml version="1.0" encoding="UTF-8"?>
<svg width="45px" height="45px" viewBox="0 0 45 45" version="1.1" xmlns="http://www.w3.org/2000/svg" xmlns:xlink="http://www.w3.org/1999/xlink">
    <title>Group</title>
    <g id="Page-1" stroke="none" stroke-width="1" fill="none" fill-rule="evenodd">
        <g id="Artboard" transform="translate(-260, -398)">
            <g id="Group" transform="translate(261, 399)">
                <g id="icon_bofa_paybill" fill="#FFFFFF" fill-rule="nonzero" stroke="#D5D5D5">
                    <circle id="Photo" cx="21.5" cy="21.5" r="21.5"></circle>
                </g>
                <g id="logo-merrill" transform="translate(9, 9)" fill="#012169">
                    <g id="registered-mark" transform="translate(24, 24)">
                        <path d="M0.5,0 C0.221153846,0 0,0.221153846 0,0.5 C0,0.778846154 0.221153846,1 0.5,1 C0.778846154,1 1,0.778846154 1,0.5 C1,0.221153846 0.769230769,0 0.5,0 Z M0.5,0.932692308 C0.259615385,0.932692308 0.0673076923,0.740384615 0.0673076923,0.5 C0.0673076923,0.259615385 0.259615385,0.0673076923 0.5,0.0673076923 C0.740384615,0.0673076923 0.932692308,0.259615385 0.932692308,0.5 C0.932692308,0.740384615 0.740384615,0.932692308 0.5,0.932692308 Z" id="Shape"></path>
                        <path d="M1.21959207,1.18110236 L0.998322855,1.18110236 L0.622165187,0.724962011 L0.40089597,0.724962011 L0.40089597,1.18110236 L0.223880597,1.18110236 L0.223880597,0.181102362 L0.777053639,0.181102362 C0.887688247,0.181102362 0.998322855,0.198646222 1.08683054,0.233733941 C1.17533823,0.28636552 1.24171899,0.356540959 1.21959207,0.444260257 C1.21959207,0.637242713 1.0425767,0.707418152 0.821307482,0.724962011 L1.21959207,1.18110236 Z M0.622165187,0.619698853 C0.79918056,0.619698853 1.06470362,0.637242713 1.06470362,0.461804117 C1.06470362,0.338997099 0.909815169,0.321453239 0.754926717,0.321453239 L0.423022892,0.321453239 L0.423022892,0.619698853 L0.622165187,0.619698853 Z" id="Shape"></path>
                    </g>
                    <path d="M7.15052497,9.53732199 C6.61057576,9.45328569 6.0602429,9.45328569 5.52029369,9.53732199 L5.36453911,9.22218588 C5.86295377,8.81250895 6.87016673,8.84402256 7.32704683,9.22218588 L7.15052497,9.53732199 Z M24.5638872,18.8863596 C23.0271086,23.413815 23.2347814,24.3172051 23.2659323,25 L18.8736531,25 C19.050175,24.5903231 19.8393315,23.140697 20.026237,21.7646027 C19.3616842,22.3318477 18.4375403,22.4789112 17.6276165,22.142766 C17.1395855,23.3717968 16.3296616,24.7478911 16.1739071,25 L12.2904262,25 C12.726539,24.2541779 13.7649029,22.9516153 14.2737012,20.9977715 L13.1522682,21.0923123 L13.0795827,20.2099313 L12.4046462,20.262454 C12.3215771,21.4389621 12.2281243,22.7730382 12.2281243,22.7730382 C11.4182005,22.8990927 10.6082767,22.9621199 9.78796922,22.983129 C8.85344173,23.0251471 7.95006516,22.6890019 7.264745,22.0587297 L7.264745,22.0587297 C6.61057576,21.5124938 5.81103557,20.7981853 5.03226267,20.0838768 C4.96996083,21.7646027 4.59614984,24.569314 4.54423164,24.9894955 L0.97225991,24.9894955 C1.32530363,22.9726244 1.78218373,22.5314339 0.878807161,18.4976918 C0.733436219,17.8464105 0.764587135,17.0165521 1.12801449,16.3652708 C0.0792669769,14.9996811 -0.253009463,13.4029915 0.193487003,11.7012565 L0.193487003,11.7012565 C0.598448915,10.1780987 1.32530363,7.85659611 1.87563648,6.21788839 L0.795738051,6.09183395 C0.774970774,5.69266156 1.06571266,5.11491204 1.43952365,4.7892714 C0.909958078,4.11698105 0.681518025,3.43418617 0.681518025,2.79340943 C0.754203496,-0.0638245535 3.63047143,-0.0323109434 4.60653348,0.00970720335 C3.93159696,1.07066541 3.65123871,2.05809186 3.96274787,2.26818259 C4.27425704,2.47827333 5.01149539,1.94254196 6.22638112,1.94254196 C7.44126686,1.94254196 8.17850521,2.46776879 8.49001437,2.26818259 C8.80152353,2.0685964 8.52116529,1.07066541 7.85661241,0.00970720335 C8.83267445,-0.0218064067 11.7089424,-0.0638245535 11.7816279,2.79340943 C11.7816279,3.50771792 11.5324205,4.19051281 11.0859241,4.74725325 C11.3870496,5.11491204 11.6777915,5.66114795 11.7400933,6.09183395 L10.483673,6.11284302 C10.7328803,6.58554717 10.9405531,6.9637105 10.971704,7.02673772 C11.8958479,8.69695905 12.7680735,9.98901706 13.5364628,10.82938 C15.197845,12.6466648 17.5653146,13.413496 19.2266968,13.5290459 C21.0957518,13.6551004 22.2068012,13.2874416 22.6117631,12.394556 C22.8713541,11.8798337 22.8609704,11.2810751 22.6013794,10.7663528 C22.040663,9.66337643 20.3481298,8.80200442 17.8560565,8.31879573 C15.5924233,7.88810972 13.962192,7.21581938 13.3910919,5.36702092 L13.3910919,5.36702092 C13.3807082,5.31449823 13.0691991,4.20101734 13.7649029,3.25560904 C14.3463866,2.46776879 15.4055178,2.0685964 16.921529,2.0685964 L25,2.0685964 C24.9584654,2.14212815 24.366598,3.38166348 23.5982088,4.19051281 C22.6636813,5.16743472 21.7706883,5.47206628 21.0126827,5.47206628 C19.7666461,5.47206628 19.050175,4.73674872 18.4686912,4.1589992 C17.9702766,3.6442769 17.6276165,3.3291408 17.1084345,3.29762719 C16.9838309,3.29762719 15.3224487,3.2135909 14.7409649,3.99092661 C14.4190721,4.43211715 14.5332921,4.9888576 14.5540594,5.04138028 C14.9071031,6.16536571 15.831247,6.72210615 18.0844966,7.15279216 C20.1196898,7.54146001 22.7363668,8.38182295 23.6812779,10.2411259 C24.1070071,11.0814889 24.1277743,12.0794199 23.7124288,12.9407919 C23.2659323,13.9177138 22.3729394,14.5164724 21.0438336,14.7265631 C21.9783611,15.7455032 22.1964175,16.6488933 22.8505868,17.5943016 C23.1101777,17.9199423 23.6916615,18.4871872 24.5638872,18.8863596 L24.5638872,18.8863596 Z M19.3201496,3.28712265 C19.8497152,3.82285402 20.2650607,4.24303549 21.0022991,4.24303549 C21.7187702,4.24303549 22.3417885,3.7598268 22.7882849,3.28712265 L19.3201496,3.28712265 Z M3.82776057,19.0019095 C3.62008779,18.8128279 2.32213295,17.6153107 2.0417747,17.3526973 C1.74064918,18.130033 3.06975494,20.9347443 2.43635298,23.7814737 L3.47471685,23.7814737 C3.67200599,22.1532706 3.8900624,19.8842906 3.82776057,19.0019095 Z M16.6100199,21.417953 C16.4542653,21.2393759 16.3088944,21.0397897 16.205058,20.8191944 L15.5405051,20.8822216 C15.312065,21.8906571 14.9486377,22.8675791 14.4606067,23.7814737 L15.4885869,23.7814737 C15.9143161,23.0146426 16.2881271,22.2268023 16.6100199,21.417953 Z M19.4447533,20.6091037 C19.0190241,20.4095175 17.5237801,20.1363995 17.18112,20.0418587 C17.3161073,20.4410311 17.700302,20.9557534 18.302553,21.0713033 C18.7386658,21.1658441 19.1851623,20.9767624 19.4447533,20.6091037 L19.4447533,20.6091037 Z M23.0997941,19.4431001 C22.1444993,18.7182871 21.8226065,18.3086101 21.1892046,17.0795793 C20.7530917,16.2602255 20.171608,14.9471584 18.5413767,14.684545 L18.5413767,14.684545 C16.7138563,14.4219315 14.3775375,13.5290459 12.6642372,11.6592384 C12.4980989,11.4701567 12.3215771,11.2705705 12.1554389,11.0604798 C12.1865898,11.8063019 12.0204516,12.8357465 11.5739551,13.6656049 L10.6394276,12.825242 C10.8055658,12.4365741 10.9094022,12.0268972 10.9405531,11.6067157 C11.0443895,10.4091985 10.7017294,9.06461783 9.91257288,7.5939827 C9.88142197,7.53095548 9.27917092,6.43848366 8.94689448,5.75568878 L7.82546149,7.3943965 L8.01236699,8.03517324 L7.56587052,8.82301349 L7.56587052,8.82301349 C6.9428522,8.66544544 5.82141921,8.67594998 5.17763361,8.82301349 L4.79343897,8.03517324 L7.03630495,8.03517324 C7.11937406,7.80407343 7.14014133,7.56246909 7.0778395,7.32086474 C6.7559467,5.96577951 6.84939945,4.56867613 8.57308348,4.53716252 C8.71845442,4.53716252 8.91574356,4.55817159 9.09226542,4.54766706 C10.1306293,4.50564891 10.597893,3.48670885 10.597893,2.80391396 C10.597893,2.05809186 10.0475602,1.34378336 9.46607642,1.25974707 C9.71528375,1.72194668 9.67374919,2.46776879 9.53876189,2.77240035 C9.40377458,3.07703192 9.04034723,3.51822246 8.42771254,3.51822246 C8.02275063,3.51822246 7.28551228,3.18207729 6.25753204,3.18207729 L6.25753204,3.18207729 C5.21916816,3.18207729 4.49231345,3.51822246 4.08735154,3.51822246 C3.47471685,3.51822246 3.11128949,3.06652738 2.97630219,2.77240035 C2.84131489,2.47827333 2.79978033,1.72194668 3.04898766,1.25974707 C2.47788753,1.32277429 1.9067874,2.03708279 1.91717104,2.80391396 C1.92755468,3.68629505 2.67517667,4.63170335 3.65123871,4.81028047 C3.55778596,5.08339843 3.52663505,5.15693018 3.25666044,5.96577951 C2.71671122,7.54146001 1.83410193,10.3041532 1.38760546,11.9953836 L1.38760546,11.9953836 C0.951492633,13.6656049 1.42914002,15.1467446 2.83093125,16.3967844 C3.13205677,16.6593979 5.44760822,18.8128279 6.18484657,19.4851182 C6.18484657,18.6867734 6.4340539,17.699347 7.18167589,16.5228389 L8.0954361,17.3421927 C7.41011594,18.4871872 7.2128268,19.5376409 7.54510325,20.3674993 C7.83584513,21.0607987 8.45886346,21.575521 9.18571817,21.7225846 C9.55952916,21.8066208 10.4213712,21.7540982 11.1066913,21.6910709 C11.1274586,21.3654303 11.1586095,20.9032307 11.2001441,20.3674993 L9.22725272,20.5250674 C9.66336555,20.0418587 10.1929311,18.8128279 10.1929311,17.6783379 L11.3974332,17.6783379 C11.3870496,18.1720511 11.3247478,18.6657644 11.2001441,19.1384685 L14.1906321,18.9073687 L14.2633175,19.7687407 L15.8831652,19.6216772 C15.8831652,19.6006681 15.8831652,19.5691545 15.8727815,19.5481455 C15.0317068,19.1174595 14.1075629,17.856915 14.5332921,15.976603 L15.7897124,15.976603 C15.4989705,16.701416 15.5405051,17.9409513 16.3815798,18.4451691 C16.8799945,18.7498007 17.6483838,18.9073687 18.3440876,19.0544322 C19.5589733,19.3170456 20.9399972,19.6006681 21.2099719,20.9032307 C21.3864937,21.7540982 21.03345,22.9516153 20.7427081,23.7709692 L22.0718139,23.7709692 C22.2068012,22.2268023 22.9751904,19.8212634 23.0997941,19.4431001 Z M7.50356869,6.249402 C8.17850521,6.21788839 8.52116529,5.76619331 8.49001437,5.14642565 C7.81507785,5.17793926 7.48280141,5.62963434 7.50356869,6.249402 Z M4.16003701,5.06238935 C4.12888609,5.77669785 4.51308073,6.30192468 5.30223727,6.33343829 C5.33338819,5.6191298 4.94919356,5.09390296 4.16003701,5.06238935 L4.16003701,5.06238935 Z" id="mark"></path>
                </g>
            </g>
        </g>
    </g>
</svg>