<?xml version="1.0" encoding="UTF-8"?>
<svg width="24px" height="21px" viewBox="0 0 24 21" version="1.1" xmlns="http://www.w3.org/2000/svg" xmlns:xlink="http://www.w3.org/1999/xlink">
    <!-- Generator: Sketch 54.1 (76490) - https://sketchapp.com -->
    <title>Artboard</title>
    <desc>Created with Sketch.</desc>
    <g id="Artboard" stroke="none" stroke-width="1" fill="none" fill-rule="evenodd">
        <path d="M20.18516,19.8522081 C19.4639697,19.8522081 18.8769814,19.2748688 18.8769814,18.5655334 C18.8769814,17.8550503 19.4639697,17.277711 20.18516,17.277711 C20.9075173,17.277711 21.4945055,17.8550503 21.4945055,18.5655334 C21.4945055,19.2748688 20.9075173,19.8522081 20.18516,19.8522081 Z M6.30749781,19.8522081 C5.5863075,19.8522081 4.99931926,19.2748688 4.99931926,18.5655334 C4.99931926,17.8550503 5.5863075,17.277711 6.30749781,17.277711 C7.0298551,17.277711 7.61684333,17.8550503 7.61684333,18.5655334 C7.61684333,19.2748688 7.0298551,19.8522081 6.30749781,19.8522081 Z M22.6789847,3.62931788 L21.5586891,12.4455072 L5.78702713,13.6369152 L4.22211417,3.62931788 L22.6789847,3.62931788 Z M20.18516,16.1299191 C19.26325,16.1299191 18.4673733,16.6337997 18.0414276,17.3706821 L8.45239716,17.3706821 C8.02528445,16.6337997 7.22940776,16.1299191 6.30749781,16.1299191 C6.26431975,16.1299191 6.22347564,16.141397 6.1791306,16.1425448 L5.96557425,14.7743769 L22.5972965,13.5175448 L24,2.48152602 L4.04240008,2.48152602 L3.6549645,0 L0,0 L0,1.14779187 L2.65253331,1.14779187 L5.05183312,16.4788478 C4.32480794,16.9035308 3.83234465,17.674847 3.83234465,18.5655334 C3.83234465,19.9084499 4.94213751,21 6.30749781,21 C7.67285812,21 8.78381795,19.9084499 8.78381795,18.5655334 C8.78381795,18.5494644 8.77915005,18.5345431 8.77915005,18.518474 L17.7146747,18.518474 C17.7146747,18.5345431 17.7100068,18.5494644 17.7100068,18.5655334 C17.7100068,19.9084499 18.8197997,21 20.18516,21 C21.5505203,21 22.6614801,19.9084499 22.6614801,18.5655334 C22.6614801,17.222617 21.5505203,16.1299191 20.18516,16.1299191 L20.18516,16.1299191 Z" id="bofa_icon_grocery2_blk" fill="#919191"></path>
    </g>
</svg>