<?xml version="1.0" encoding="UTF-8"?>
<svg width="22px" height="24px" viewBox="0 0 22 24" version="1.1" xmlns="http://www.w3.org/2000/svg" xmlns:xlink="http://www.w3.org/1999/xlink">
    <!-- Generator: Sketch 54.1 (76490) - https://sketchapp.com -->
    <title>Artboard</title>
    <desc>Created with Sketch.</desc>
    <g id="Artboard" stroke="none" stroke-width="1" fill="none" fill-rule="evenodd">
        <path d="M20.8066826,19.2278648 L1.19331742,19.2278648 L1.19331742,17.6332504 L4.02983294,14.5002195 L4.02983294,11.7078882 C4.02983294,6.46743744 6.57040573,3.46319333 11,3.46319333 C15.4307876,3.46319333 17.9713604,6.46743744 17.9713604,11.7078882 L17.9713604,14.5002195 L20.8066826,17.6332504 L20.8066826,19.2278648 Z M11,22.8292112 C9.43317422,22.8292112 8.09785203,21.8199912 7.66706444,20.3986536 L14.3341289,20.3986536 C13.9033413,21.821162 12.5692124,22.8292112 11,22.8292112 Z M22,17.1895214 L19.1646778,14.0553198 L19.1646778,11.7078882 C19.1646778,6.04712425 16.3448687,2.5862725 11.5966587,2.31816186 L11.5966587,0 L10.4033413,0 L10.4033413,2.31816186 C5.65513126,2.5862725 2.83651551,6.04712425 2.83651551,11.7078882 L2.83651551,14.0553198 L0,17.1895214 L0,20.3986536 L6.45584726,20.3986536 C6.91885442,22.4803161 8.77684964,24 11,24 C13.225537,24 15.0823389,22.4814869 15.5441527,20.3986536 L22,20.3986536 L22,17.1895214 L22,17.1895214 Z" id="bofa_icon_reminder2_blk" fill="#E31837"></path>
    </g>
</svg>