<?xml version="1.0" encoding="UTF-8"?>
<svg width="23px" height="23px" viewBox="0 0 23 23" version="1.1" xmlns="http://www.w3.org/2000/svg" xmlns:xlink="http://www.w3.org/1999/xlink">
    <title>bull icon</title>
    <g id="Page-1" stroke="none" stroke-width="1" fill="none" fill-rule="evenodd">
        <g id="Group" fill="#012169" fill-rule="nonzero">
            <g id="mark">
                <g id="registered-mark" transform="translate(21.933588, 21.716419)">
                    <path d="M0.497266187,0.0382512452 C0.21994466,0.0382512452 0,0.258195905 0,0.535517432 C0,0.81283896 0.21994466,1.03278362 0.497266187,1.03278362 C0.774587714,1.03278362 0.994532374,0.81283896 0.994532374,0.535517432 C0.994532374,0.258195905 0.765024903,0.0382512452 0.497266187,0.0382512452 Z M0.497266187,0.96584394 C0.258195905,0.96584394 0.066939679,0.774587714 0.066939679,0.535517432 C0.066939679,0.29644715 0.258195905,0.105190924 0.497266187,0.105190924 C0.736336469,0.105190924 0.927592695,0.29644715 0.927592695,0.535517432 C0.927592695,0.774587714 0.736336469,0.96584394 0.497266187,0.96584394 Z" id="Shape"></path>
                    <path d="M0.717210847,0.803276148 L0.621582734,0.803276148 L0.459014942,0.554643055 L0.363386829,0.554643055 L0.363386829,0.803276148 L0.286884339,0.803276148 L0.286884339,0.258195905 L0.525954621,0.258195905 C0.573768677,0.258195905 0.621582734,0.267758716 0.659833979,0.286884339 C0.698085224,0.315572773 0.726773658,0.353824018 0.717210847,0.401638074 C0.717210847,0.506828998 0.640708356,0.545080243 0.545080243,0.554643055 L0.717210847,0.803276148 Z M0.459014942,0.497266187 C0.535517432,0.497266187 0.650271168,0.506828998 0.650271168,0.411200885 C0.650271168,0.344261206 0.583331489,0.334698395 0.51639181,0.334698395 L0.37294964,0.334698395 L0.37294964,0.497266187 L0.459014942,0.497266187 Z" id="Shape"></path>
                </g>
                <path d="M6.5852754,8.6823068 C6.08800922,8.60580431 5.58118022,8.60580431 5.08391403,8.6823068 L4.94047186,8.39542246 C5.3994868,8.02247282 6.3270795,8.05116125 6.7478432,8.39542246 L6.5852754,8.6823068 Z M22.6221099,17.1932088 C21.2068139,21.3147805 21.3980701,22.1371823 21.4267585,22.758765 L17.3816893,22.758765 C17.5442571,22.3858154 18.2710308,21.0661474 18.4431614,19.8134191 C17.8311415,20.3298109 16.9800513,20.4636903 16.234152,20.1576803 C15.7846999,21.2765293 15.0388006,22.5292575 14.8953584,22.758765 L11.318867,22.758765 C11.7205051,22.0798054 12.6767862,20.8940168 13.1453639,19.1153339 L12.1125803,19.2013992 L12.0456407,18.3981231 L11.4240579,18.4459371 C11.3475554,19.516972 11.2614901,20.731449 11.2614901,20.731449 C10.5155908,20.8462028 9.76969156,20.9035796 9.01422947,20.9227052 C8.15357646,20.9609565 7.32161187,20.6549465 6.69046633,20.0811779 L6.69046633,20.0811779 C6.08800922,19.5839117 5.35167275,18.9336405 4.6344619,18.2833693 C4.57708503,19.8134191 4.23282383,22.3666898 4.18500977,22.7492022 L0.895402687,22.7492022 C1.22053827,20.9131424 1.64130197,20.5115044 0.809337385,16.8393848 C0.675458027,16.2464905 0.704146461,15.4910284 1.03884486,14.8981341 C0.073000916,13.6549687 -0.233009045,12.2014214 0.17819184,10.6522459 L0.17819184,10.6522459 C0.55114148,9.26563829 1.22053827,7.15225699 1.72736727,5.66045843 L0.732834895,5.54570469 C0.713709272,5.18231787 0.981467989,4.65636325 1.32572919,4.3599161 C0.838025819,3.74789617 0.627643971,3.12631344 0.627643971,2.54298195 C0.69458365,-0.0581027206 3.34348238,-0.0294142868 4.24238664,0.0088369584 C3.6208039,0.974680899 3.362608,1.87358516 3.64949234,2.06484139 C3.93637668,2.25609761 4.61533628,1.76839424 5.7341852,1.76839424 C6.85303412,1.76839424 7.53199372,2.2465348 7.81887806,2.06484139 C8.1057624,1.88314797 7.84756649,0.974680899 7.23554657,0.0088369584 C8.13445083,-0.0198514755 10.7833496,-0.0581027206 10.8502892,2.54298195 C10.8502892,3.19325312 10.6207818,3.81483585 10.2095809,4.32166485 C10.4869024,4.65636325 10.7546611,5.15362943 10.812038,5.54570469 L9.65493783,5.56483032 C9.8844453,5.99515683 10.0757015,6.33941803 10.10439,6.3967949 C10.9554802,7.91728189 11.7587563,9.09350768 12.4664043,9.85853259 C13.9964542,11.5128989 16.1767751,12.2109842 17.7068249,12.3161751 C19.428131,12.4309288 20.4513518,12.0962304 20.8243014,11.2833915 C21.0633717,10.8148137 21.0538089,10.2697335 20.8147386,9.80115572 C20.2983468,8.79706053 18.7396086,8.01291001 16.4445338,7.57302069 C14.359841,7.18094543 12.8584796,6.5689255 12.332525,4.88587072 L12.332525,4.88587072 C12.3229622,4.83805666 12.0360778,3.82439866 12.6767862,2.96374565 C13.2123036,2.2465348 14.1877104,1.88314797 15.5838808,1.88314797 L23.023748,1.88314797 C22.9854968,1.95008765 22.4404165,3.07849938 21.7327685,3.81483585 C20.8721155,4.7041773 20.0497137,4.98149883 19.3516285,4.98149883 C18.2040911,4.98149883 17.5442571,4.31210204 17.0087397,3.78614742 C16.5497248,3.31756966 16.234152,3.03068533 15.7560114,3.00199689 C15.6412577,3.00199689 14.1112079,2.9254944 13.5756905,3.63314244 C13.2792433,4.03478051 13.3844342,4.54160951 13.4035599,4.58942357 C13.7286954,5.61264437 14.5797856,6.11947337 16.6549157,6.51154864 C18.5292267,6.86537265 20.9390551,7.63039756 21.809271,9.32301515 C22.2013462,10.0880401 22.2204719,10.9965071 21.8379594,11.7806577 C21.4267585,12.6699991 20.6043568,13.2150793 19.3803169,13.4063356 C20.2409699,14.3339283 20.441789,15.15633 21.0442461,16.0169831 C21.2833164,16.3134302 21.8188338,16.829822 22.6221099,17.1932088 L22.6221099,17.1932088 Z M17.7928902,2.99243408 C18.2805936,3.48013746 18.6631061,3.86264991 19.3420657,3.86264991 C20.0018996,3.86264991 20.5756683,3.42276059 20.9868692,2.99243408 L17.7928902,2.99243408 Z M3.52517579,17.2983998 C3.33391957,17.1262692 2.13856815,16.0361087 1.88037225,15.7970384 C1.60305072,16.5046864 2.82709057,19.057957 2.24375908,21.6494789 L3.20004021,21.6494789 C3.38173362,20.1672432 3.58255266,18.1016759 3.52517579,17.2983998 Z M15.2969965,19.4978464 C15.1535543,19.3352786 15.019675,19.1535852 14.9240468,18.9527661 L14.3120269,19.010143 C14.1016451,19.9281729 13.7669467,20.8175143 13.3174946,21.6494789 L14.2642129,21.6494789 C14.6562881,20.9513937 15.0005493,20.2341828 15.2969965,19.4978464 Z M17.907644,18.7615099 C17.5155687,18.5798165 16.1385239,18.3311834 15.8229511,18.2451181 C15.9472677,18.6085049 16.3010917,19.0770827 16.8557347,19.1822736 C17.2573728,19.2683389 17.6685737,19.0962083 17.907644,18.7615099 L17.907644,18.7615099 Z M21.2737535,17.7000378 C20.3939749,17.0402039 20.0975278,16.6672542 19.5141963,15.5484053 C19.1125582,14.802506 18.5770408,13.6071546 17.0756794,13.3680843 L17.0756794,13.3680843 C15.3926246,13.129014 13.2409921,12.3161751 11.6631282,10.6139947 C11.5101232,10.4418641 11.3475554,10.2601707 11.1945504,10.0689144 C11.2232389,10.747874 11.0702339,11.6850295 10.659033,12.4404916 L9.79838,11.6754667 C9.95138498,11.3216427 10.0470131,10.9486931 10.0757015,10.5661806 C10.1713296,9.47602013 9.85575687,8.25198029 9.12898321,6.91318671 C9.10029477,6.85580984 8.54565172,5.86127747 8.23964176,5.23969473 L7.20685814,6.73149329 L7.37898874,7.31482478 L6.96778786,8.03203563 L6.96778786,8.03203563 C6.39401918,7.88859346 5.36123556,7.89815627 4.76834126,8.03203563 L4.41451724,7.31482478 L6.48008448,7.31482478 C6.55658697,7.10444294 6.57571259,6.88449828 6.51833573,6.66455362 C6.22188858,5.43095096 6.30795388,4.15909706 7.89538055,4.13040862 C8.02925991,4.13040862 8.21095332,4.14953425 8.37352112,4.13997144 C9.32980224,4.10172019 9.76012875,3.1741275 9.76012875,2.55254476 C9.76012875,1.87358516 9.25329975,1.22331399 8.71778232,1.1468115 C8.94728979,1.5675752 8.90903855,2.2465348 8.784722,2.52385633 C8.66040545,2.80117785 8.32570706,3.20281593 7.76150119,3.20281593 C7.38855155,3.20281593 6.70959195,2.89680597 5.76287363,2.89680597 L5.76287363,2.89680597 C4.8065925,2.89680597 4.13719571,3.20281593 3.76424607,3.20281593 C3.20004021,3.20281593 2.86534181,2.79161504 2.74102527,2.52385633 C2.61670872,2.25609761 2.57845747,1.5675752 2.80796494,1.1468115 C2.28201032,1.20418837 1.7560557,1.85445954 1.76561851,2.55254476 C1.77518133,3.35582091 2.46370374,4.21647393 3.362608,4.37904172 C3.2765427,4.62767481 3.24785426,4.69461449 2.99922117,5.43095096 C2.50195498,6.86537265 1.68911602,9.38039202 1.27791514,10.9200046 L1.27791514,10.9200046 C0.876277064,12.4404916 1.31616638,13.788848 2.60714591,14.9268226 C2.88446744,15.1658929 5.01697435,17.1262692 5.69593395,17.7382891 C5.69593395,17.0115154 5.92544143,16.1126112 6.61396384,15.0415763 L7.45549123,15.7874756 C6.82434569,16.829822 6.64265227,17.7861031 6.94866223,18.5415652 C7.21642095,19.1727108 7.79018963,19.6412885 8.45958642,19.7751679 C8.80384762,19.8516704 9.59756096,19.8038563 10.2287065,19.7464795 C10.2478321,19.4500323 10.2765206,19.0292686 10.3147718,18.5415652 L8.49783766,18.6850074 C8.89947574,18.2451181 9.38717911,17.1262692 9.38717911,16.0934855 L10.4964652,16.0934855 C10.4869024,16.5429377 10.4295255,16.9923898 10.3147718,17.4227163 L13.0688615,17.2123345 L13.1358011,17.996485 L14.6275997,17.8626056 C14.6275997,17.84348 14.6275997,17.8147916 14.6180369,17.795666 C13.8434492,17.4035907 12.992359,16.2560533 13.3844342,14.5443101 L14.5415344,14.5443101 C14.2737757,15.2041441 14.3120269,16.3325558 15.0866146,16.7915708 C15.5456296,17.0688923 16.2532776,17.2123345 16.893986,17.3462138 C18.0128349,17.5852841 19.2846888,17.84348 19.5333219,19.0292686 C19.6958897,19.8038563 19.3707541,20.8940168 19.1029954,21.6399161 L20.3270352,21.6399161 C20.4513518,20.2341828 21.1589998,18.0442991 21.2737535,17.7000378 Z M6.91041099,5.68914686 C7.53199372,5.66045843 7.84756649,5.24925755 7.81887806,4.68505168 C7.19729533,4.71374011 6.89128537,5.124941 6.91041099,5.68914686 Z M3.83118575,4.60854919 C3.80249732,5.25882036 4.15632134,5.73696092 4.88309499,5.76564935 C4.91178343,5.11537819 4.55795941,4.63723762 3.83118575,4.60854919 L3.83118575,4.60854919 Z"></path>
            </g>
        </g>
    </g>
</svg>