<?xml version="1.0" encoding="UTF-8"?>
<svg width="24px" height="24px" viewBox="0 0 24 24" version="1.1" xmlns="http://www.w3.org/2000/svg" xmlns:xlink="http://www.w3.org/1999/xlink">
    <title>core/icon/brand/trade</title>
    <g id="core/icon/brand/trade" stroke="none" stroke-width="1" fill-rule="evenodd" fill="#0073CF">
        <path d="M16.0968,12.371 L17.1768,11.4468182 L19.92,11.4468182 L19.4136,11.9786364 L20.2872,12.787 L24,8.9 L20.4744,5 L19.5792,5.78590909 L20.0748,6.33427273 L15.36,6.33427273 L12.1932,9.03709091 L9.0264,6.33427273 L3.9276,6.33427273 L4.4208,5.78945455 L3.5244,5 L0,8.9 L3.7128,12.7881818 L4.5864,11.9798182 L4.08,11.4456364 L7.2084,11.4456364 L8.2884,12.3698182 L7.6884,12.8850909 L0.9708,12.8850909 L0.9708,18 L9.504,18 L12.1932,15.7037273 L14.88,18 L22.92,18 L22.92,12.8862727 L16.704,12.8862727 L16.0968,12.371 Z M15.8076,7.51609091 L21.144,7.51609091 L22.374,8.87636364 L21.048,10.265 L16.728,10.265 L15.1788,11.5886364 L15.0084,11.4420909 L13.1088,9.81945455 L15.8076,7.51609091 Z M9.0564,16.8181818 L2.1708,16.8181818 L2.1708,14.0680909 L8.1324,14.0680909 L9.2052,13.1521818 L11.16,14.8209091 L11.28,14.9225455 L9.0564,16.8181818 Z M21.72,16.8181818 L15.33,16.8181818 L11.0484,13.1616364 L9.6,11.9242727 L9.6,11.9242727 L7.6572,10.2697273 L2.9508,10.2697273 L1.626,8.87636364 L2.8596,7.51254545 L8.5788,7.51254545 L11.28,9.81945455 L11.9832,10.4186364 L16.2564,14.0680909 L21.72,14.0680909 L21.72,16.8181818 Z" id="icon-trade" fill="#0073CF"></path>
    </g>
</svg>