<?xml version="1.0" encoding="UTF-8"?>
<svg width="24px" height="24px" viewBox="0 0 24 24" version="1.1" xmlns="http://www.w3.org/2000/svg" xmlns:xlink="http://www.w3.org/1999/xlink">
    <!-- Generator: Sketch 54.1 (76490) - https://sketchapp.com -->
    <title>Artboard</title>
    <desc>Created with Sketch.</desc>
    <g id="Artboard" stroke="none" stroke-width="1" fill="none" fill-rule="evenodd">
        <g id="20190501_zelle_Transfer" fill="#919191" fill-rule="nonzero">
            <g id="Group-8">
                <path d="M12.5950413,4.232 L12.5950413,0.00358441558 L11.4049587,0.00358441558 L11.4049587,4.232 C8.73441322,4.46618182 6.6446281,6.22015584 6.6446281,8.36722078 C6.6446281,10.6994805 8.4202314,12.1033766 11.9226446,12.5394805 C16.1652893,13.0759481 16.1652893,14.8621818 16.1652893,15.5360519 C16.1652893,17.1836883 14.2968595,18.5230649 12,18.5230649 C9.7031405,18.5230649 7.83471074,17.1836883 7.83471074,15.5360519 L7.83471074,14.9386494 L6.6446281,14.9386494 L6.6446281,15.5360519 C6.6446281,17.6831169 8.73441322,19.4370909 11.4049587,19.6712727 L11.4049587,23.8996883 L12.5950413,23.8996883 L12.5950413,19.6712727 C15.2655868,19.4370909 17.3553719,17.6831169 17.3553719,15.5360519 C17.3553719,13.204987 15.5773884,11.7975065 12.0702149,11.3542338 C7.83471074,10.8273247 7.83471074,9.0387013 7.83471074,8.36722078 C7.83471074,6.71958442 9.7031405,5.38020779 12,5.38020779 C14.2968595,5.38020779 16.1652893,6.71958442 16.1652893,8.36722078 L16.1652893,8.96462338 L17.3553719,8.96462338 L17.3553719,8.36722078 C17.3553719,6.22015584 15.2655868,4.46618182 12.5950413,4.232" id="Fill-2"></path>
                <polygon id="Fill-4" points="19.7494612 7.77208831 18.9080727 8.61681558 21.6250314 11.3493351 17.9500562 11.3493351 17.9500562 12.5441403 21.6250314 12.5441403 18.8985521 15.2862182 19.7399405 16.1309455 23.9016595 11.9467377"></polygon>
                <polygon id="Fill-6" points="5.10120992 8.61681558 4.25982149 7.77208831 0.0981024793 11.9562961 4.25030083 16.1309455 5.09168926 15.2862182 2.37473058 12.5536987 6.04970579 12.5536987 6.04970579 11.3588935 2.37473058 11.3588935"></polygon>
            </g>
        </g>
    </g>
</svg>