<?xml version="1.0" encoding="utf-8"?>
<!-- Generator: Adobe Illustrator 17.1.0, SVG Export Plug-In . SVG Version: 6.00 Build 0)  -->
<!DOCTYPE svg PUBLIC "-//W3C//DTD SVG 1.1//EN" "http://www.w3.org/Graphics/SVG/1.1/DTD/svg11.dtd">
<svg version="1.1" id="Icon" xmlns="http://www.w3.org/2000/svg" xmlns:xlink="http://www.w3.org/1999/xlink" x="0px" y="0px"
	 viewBox="0 0 64 64" enable-background="new 0 0 64 64" xml:space="preserve">
	 <title>payment icon</title>
<path id="Payment" fill="#808080" d="M62.516,32L50,21.987V27H37v10h13v5.013L62.516,32z M35,24h12v-5H2v26h45v-5H35V24z
	 M21.987,42.013c-5.53,0-10.013-4.483-10.013-10.013s4.483-10.013,10.013-10.013S32,26.47,32,32S27.517,42.013,21.987,42.013z
	 M23.763,31.521l-1.488-0.568c-0.517-0.208-0.848-0.388-0.992-0.54c-0.144-0.152-0.216-0.35-0.216-0.596
	c0-0.32,0.123-0.572,0.368-0.756c0.245-0.184,0.587-0.276,1.024-0.276c0.304,0,0.577,0.072,0.82,0.216
	c0.243,0.144,0.433,0.352,0.572,0.624c0.117,0.23,0.225,0.379,0.324,0.448c0.099,0.069,0.236,0.104,0.412,0.104
	c0.283,0,0.272-0.069,0.419-0.208C25.152,29.83,25,29.628,25,29.361v-0.048l0.209-0.984c-0.005-0.341,0.051-0.577-0.055-0.708
	c-0.107-0.131-0.235-0.196-0.496-0.196c-0.149,0-0.245,0.031-0.344,0.092c-0.099,0.061-0.163,0.151-0.222,0.268
	c-0.155-0.053-0.293-0.099-0.429-0.136c-0.136-0.037-0.434-0.067-0.562-0.088L23,26.857v-0.104c0-0.181,0.108-0.321-0.014-0.42
	c-0.123-0.099-0.211-0.148-0.435-0.148c-0.219,0-0.35,0.056-0.478,0.168c-0.128,0.112-0.179,0.275-0.195,0.488l-0.053,0.64
	c-0.923,0.053-1.612,0.297-2.079,0.732c-0.467,0.435-0.697,1.052-0.697,1.852c0,0.592,0.145,1.092,0.433,1.5
	c0.288,0.408,0.723,0.721,1.305,0.94l1.472,0.576l0.048,0.016c0.928,0.357,1.392,0.749,1.392,1.176c0,0.32-0.111,0.569-0.332,0.748
	c-0.221,0.179-0.529,0.268-0.924,0.268c-0.437,0-0.824-0.076-1.16-0.228c-0.336-0.152-0.563-0.353-0.68-0.604
	c-0.021-0.053-0.053-0.136-0.096-0.248c-0.165-0.448-0.456-0.672-0.872-0.672c-0.277,0-0.397,0.077-0.525,0.232
	C18.981,33.924,19,34.174,19,34.521v0.968c0,0.373-0.029,0.631,0.077,0.772c0.107,0.141,0.263,0.212,0.551,0.212
	c0.192,0,0.317-0.023,0.415-0.068c0.099-0.045,0.178-0.121,0.258-0.228c0.192,0.096,0.373,0.175,0.555,0.236
	c0.181,0.061,0.223,0.108,0.404,0.14L21,38.409v0.128c0,0.234,0.187,0.403,0.285,0.504c0.099,0.101,0.326,0.152,0.545,0.152
	c0.261,0,0.488-0.055,0.61-0.164c0.123-0.109,0.209-0.161,0.225-0.401L22.787,37h0.048c0.955,0,1.684-0.357,2.188-0.824
	c0.504-0.467,0.756-1.202,0.756-2.082c0-0.619-0.152-1.149-0.456-1.531C25.019,32.183,24.499,31.814,23.763,31.521z"/>
</svg>
