<?xml version="1.0" encoding="utf-8"?>
<!-- Generator: Adobe Illustrator 17.1.0, SVG Export Plug-In . SVG Version: 6.00 Build 0)  -->
<!DOCTYPE svg PUBLIC "-//W3C//DTD SVG 1.1//EN" "http://www.w3.org/Graphics/SVG/1.1/DTD/svg11.dtd">
<svg version="1.1" id="Icon" xmlns="http://www.w3.org/2000/svg" xmlns:xlink="http://www.w3.org/1999/xlink" x="0px" y="0px"
	 viewBox="0 0 64 64" enable-background="new 0 0 64 64" xml:space="preserve">
	 <title>icon bell</title>
<path id="Bell" fill-rule="evenodd" clip-rule="evenodd" fill="#808080" d="M61.1,48.402c-2.516-2.443-6.499-4.923-7.936-11.111
	c-1.438-6.188,1.649-16.691-4.762-24.338c-6.411-7.647-13.227-7.407-13.227-7.407S34.19,1.312,32,1.312s-3.175,4.233-3.175,4.233
	s-6.816-0.24-13.227,7.407c-6.411,7.647-3.324,18.15-4.762,24.338C9.399,43.479,5.416,45.959,2.9,48.402
	c-2.68,2.603,2.468,11.168,8.466,8.995c5.6-2.029,15.266-2.153,20.635-2.116c5.368-0.036,15.034,0.087,20.635,2.116
	C58.632,59.57,63.78,51.004,61.1,48.402z M23.005,58.984c0,0-0.689,3.704,5.291,3.704s5.291-4.233,5.291-4.233L23.005,58.984z"/>
</svg>
