<?xml version="1.0" encoding="utf-8"?>
<!-- Generator: Adobe Illustrator 19.0.1, SVG Export Plug-In . SVG Version: 6.00 Build 0)  -->
<!DOCTYPE svg PUBLIC "-//W3C//DTD SVG 1.1//EN" "http://www.w3.org/Graphics/SVG/1.1/DTD/svg11.dtd">
<svg version="1.1" id="Icon" xmlns="http://www.w3.org/2000/svg" xmlns:xlink="http://www.w3.org/1999/xlink" x="0px" y="0px"
	 viewBox="-7 9 64 64" enable-background="new -7 9 64 64" xml:space="preserve">
	 <title>key lock icon</title>
<path id="Lock_x5F_n_x5F_key" fill="#808080" d="M45.1,30c0,0,0.7-19.1-20.1-19.1S4.9,30,4.9,30H-3v41h56V30H45.1z M28.1,62.5
	L28.1,62.5L28,66.4H22v-3.9h-0.1l-3.1-5.3l3.1-5.3H22v-5c-1.6-1-2.7-2.8-2.7-4.9c0-3.2,2.6-5.8,5.8-5.8s5.8,2.6,5.8,5.8
	c0,2.1-1.1,3.9-2.7,4.9v5h0.1l3.1,5.3L28.1,62.5z M12.9,30c0,0,0.8-12.1,12.1-12.1S37.1,30,37.1,30H12.9z"/>
</svg>
