<?xml version="1.0" encoding="utf-8"?>
<!-- Generator: Adobe Illustrator 17.1.0, SVG Export Plug-In . SVG Version: 6.00 Build 0)  -->
<!DOCTYPE svg PUBLIC "-//W3C//DTD SVG 1.1//EN" "http://www.w3.org/Graphics/SVG/1.1/DTD/svg11.dtd">
<svg version="1.1" id="Icon" xmlns="http://www.w3.org/2000/svg" xmlns:xlink="http://www.w3.org/1999/xlink" x="0px" y="0px"
	 viewBox="0 0 64 64" enable-background="new 0 0 64 64" xml:space="preserve">
<g id="Contact">
	<path fill-rule="evenodd" clip-rule="evenodd" fill="#808080" d="M46.638,5.276l-3.777,4.532
		c5.835,4.868,9.552,12.189,9.552,20.381c0,8.902-4.399,16.761-11.125,21.575l3.437,4.811c8.222-5.883,13.586-15.506,13.586-26.386
		C58.309,20.176,53.769,11.225,46.638,5.276z"/>
	<path fill-rule="evenodd" clip-rule="evenodd" fill="#808080" d="M29.296,34.978l3.429,4.801c2.99-2.139,4.945-5.632,4.945-9.589
		c0-3.641-1.652-6.895-4.245-9.058l-3.791,4.549c1.296,1.082,2.139,2.689,2.139,4.51C31.773,32.168,30.791,33.908,29.296,34.978z"/>
	<path fill-rule="evenodd" clip-rule="evenodd" fill="#808080" d="M46.515,30.19c0-6.372-2.891-12.066-7.429-15.852l-3.774,4.529
		c3.242,2.704,5.307,6.771,5.307,11.323c0,4.946-2.444,9.312-6.181,11.986l3.425,4.794C43.094,43.226,46.515,37.114,46.515,30.19z"
		/>
	<path fill-rule="evenodd" clip-rule="evenodd" fill="#808080" d="M36,50H12V8h24v6.762l5-6.023V7.735C41,4.686,38.98,3,35.93,3
		H11.085C8.036,3,5,4.686,5,7.735v49.69C5,60.475,8.036,62,11.085,62H35.93C38.98,62,41,60.475,41,57.426v-3.012l-5-7.027V50z"/>
</g>
</svg>
