<?xml version="1.0" encoding="utf-8"?>
<!-- Generator: Adobe Illustrator 17.1.0, SVG Export Plug-In . SVG Version: 6.00 Build 0)  -->
<!DOCTYPE svg PUBLIC "-//W3C//DTD SVG 1.1//EN" "http://www.w3.org/Graphics/SVG/1.1/DTD/svg11.dtd">
<svg version="1.1" id="Icon" xmlns="http://www.w3.org/2000/svg" xmlns:xlink="http://www.w3.org/1999/xlink" x="0px" y="0px"
	 viewBox="0 0 64 64" enable-background="new 0 0 64 64" xml:space="preserve">
	 <title>deals icon</title>
<path id="Deals" fill-rule="evenodd" clip-rule="evenodd" fill="#808080" d="M24.611,8.029C23.823,9.955,21.267,14.378,18.023,22
	h21.556L24.611,8.029z M34.049,61.677c2.547,1.015,5.396-0.13,6.363-2.558c0,0,0.889-2.187,2.228-5.494L23.466,57.46L34.049,61.677z
	 M8.133,46.254c-0.968,2.428,0.312,5.219,2.859,6.234l2.466,0.983l31.493-5.557c3.185-7.883,7.263-18.017,9.527-23.804
	l-38.398,2.133C12.116,36.21,8.133,46.254,8.133,46.254z M44.523,2.171c-2.301-0.924-10.641,1.316-15.987,2.973L45.071,22h10.47
	C56.404,18.346,47.935,3.542,44.523,2.171z M44.1,9.644c-0.484,1.214-1.908,1.787-3.182,1.279c-1.274-0.507-1.914-1.903-1.43-3.117
	c0.484-1.214,1.909-1.787,3.182-1.279C43.944,7.035,44.584,8.43,44.1,9.644z"/>
</svg>
4.946-2.444,9.312-6.181,11.986l3.425,4.794C43.094,43.226,46.515,37.114,46.515,30.19z"
		/>
	<path fill-rule="evenodd" clip-rule="evenodd" fill="#808080" d="M36,50H12V8h24v6.762l5-6.023V7.735C41,4.686,38.98,3,35.93,3
		H11.085C8.036,3,5,4.686,5,7.735v49.69C5,60.475,8.036,62,11.085,62H35.93C38.98,62,41,60.475,41,57.426v-3.012l-5-7.027V50z"/>
</g>
</svg>
