<?xml version="1.0" encoding="utf-8"?>
<!-- Generator: Adobe Illustrator 18.1.1, SVG Export Plug-In . SVG Version: 6.00 Build 0)  -->
<!DOCTYPE svg PUBLIC "-//W3C//DTD SVG 1.1//EN" "http://www.w3.org/Graphics/SVG/1.1/DTD/svg11.dtd">
<svg version="1.1" id="Icon" xmlns="http://www.w3.org/2000/svg" xmlns:xlink="http://www.w3.org/1999/xlink" x="0px" y="0px"
	 width="256px" height="256px" viewBox="0 0 256 256" enable-background="new 0 0 256 256" xml:space="preserve">
<path id="Aim" fill-rule="evenodd" clip-rule="evenodd" fill="#808080" d="M117,102.3H139V14H117V102.3z M197.9,102.3h22.1V36.1
	h-66.2v22.1h44.1V102.3z M14,139h88.2V117H14V139z M36.1,102.3h22.1V58.1h44.1V36.1H36.1V102.3z M197.9,197.9h-44.1v22.1h66.2v-66.2
	h-22.1V197.9z M58.1,153.7H36.1v66.2h66.2v-22.1H58.1V153.7z M153.7,117V139H242V117H153.7z M117,242H139v-88.2H117V242z"/>
</svg>
