<?xml version="1.0" encoding="utf-8"?>
<!-- Generator: Adobe Illustrator 17.1.0, SVG Export Plug-In . SVG Version: 6.00 Build 0)  -->
<!DOCTYPE svg PUBLIC "-//W3C//DTD SVG 1.1//EN" "http://www.w3.org/Graphics/SVG/1.1/DTD/svg11.dtd">
<svg version="1.1" id="Icon" xmlns="http://www.w3.org/2000/svg" xmlns:xlink="http://www.w3.org/1999/xlink" x="0px" y="0px"
	 viewBox="0 0 64 64" enable-background="new 0 0 64 64" xml:space="preserve">
	 <title>icon bell</title>
<path id="Bell_x5F_Strike" fill-rule="evenodd" clip-rule="evenodd" fill="#808080" d="M58.226,45.536
	c-2.352-2.284-6.076-4.602-7.42-10.388s1.542-15.606-4.452-22.755c-5.994-7.15-12.367-6.926-12.367-6.926s-0.92-3.957-2.968-3.957
	S28.05,5.467,28.05,5.467s-6.373-0.224-12.367,6.926c-0.137,0.163-0.264,0.329-0.391,0.495l40.117,40.32
	C58.312,51.256,59.897,47.159,58.226,45.536z M22.609,55.43c0,0-0.645,3.463,4.947,3.463s4.947-3.957,4.947-3.957L22.609,55.43z
	 M11.231,35.148c-1.344,5.786-5.068,8.104-7.42,10.388c-2.505,2.433,2.308,10.441,7.915,8.41c5.236-1.897,14.274-2.013,19.293-1.979
	c4.363-0.03,11.759,0.055,17.059,1.324L12.76,17.796C10.817,23.941,12.259,30.724,11.231,35.148z M60.672,59.872L5.432,4.384
	C4.787,3.736,3.794,3.68,3.213,4.259C2.632,4.837,2.684,5.83,3.328,6.478l55.24,55.488c0.645,0.647,1.638,0.704,2.219,0.125
	C61.368,61.513,61.316,60.519,60.672,59.872z"/>
</svg>
