<?xml version="1.0" encoding="utf-8"?>
<!-- Generator: Adobe Illustrator 17.1.0, SVG Export Plug-In . SVG Version: 6.00 Build 0)  -->
<!DOCTYPE svg PUBLIC "-//W3C//DTD SVG 1.1//EN" "http://www.w3.org/Graphics/SVG/1.1/DTD/svg11.dtd">
<svg version="1.1" id="Icon" xmlns="http://www.w3.org/2000/svg" xmlns:xlink="http://www.w3.org/1999/xlink" x="0px" y="0px"
	 viewBox="0 0 64 64" enable-background="new 0 0 64 64" xml:space="preserve">
	 <title>help icon</title>
<path fill="#808080" d="M32,1.952C15.405,1.952,1.952,15.405,1.952,32c0,16.595,13.453,30.048,30.048,30.048
	S62.048,48.595,62.048,32C62.048,15.405,48.595,1.952,32,1.952z M32.407,48.56c-0.737,0.721-1.631,1.082-2.68,1.082
	c-1.049,0-1.942-0.361-2.68-1.082c-0.738-0.721-1.106-1.623-1.106-2.704c0-1.082,0.369-1.983,1.106-2.704
	c0.738-0.721,1.63-1.082,2.68-1.082c1.049,0,1.942,0.361,2.68,1.082c0.738,0.721,1.106,1.623,1.106,2.704
	C33.513,46.937,33.145,47.839,32.407,48.56z M39.364,27.245c-0.459,0.934-1.033,1.77-1.721,2.508s-1.434,1.434-2.237,2.09
	c-0.804,0.656-1.573,1.385-2.311,2.188c-0.738,0.803-1.377,1.924-1.918,2.956C30.637,38.019,30.3,39,30.17,41h-1.278
	c-0.197-1-0.295-2.137-0.295-3.153c0-1.377,0.27-2.764,0.811-3.961c0.541-1.196,1.131-2.411,1.77-3.542
	c0.639-1.131,1.229-2.304,1.77-3.467c0.541-1.163,0.811-2.414,0.811-3.725c0-0.492-0.058-1.031-0.172-1.604
	c-0.115-0.573-0.303-1.093-0.565-1.552c-0.263-0.459-0.607-0.845-1.033-1.157c-0.426-0.311-0.934-0.468-1.524-0.468
	c-0.525,0-0.976,0.106-1.352,0.319c-0.377,0.213-0.688,0.492-0.934,0.836s-0.418,0.721-0.516,1.131
	c-0.098,0.41-0.148,0.811-0.148,1.205c0,1.311,0.081,2.377,0.246,3.196c-0.918,0.164-1.828,0.377-2.729,0.639
	c-0.902,0.263-1.779,0.557-2.631,0.885c-0.197-0.59-0.295-1.213-0.295-1.868c0-1.442,0.246-2.663,0.738-3.663
	c0.492-1,1.155-1.827,1.991-2.483c0.836-0.656,1.835-1.131,2.999-1.426c1.163-0.295,2.401-0.443,3.712-0.443
	c1.082,0,2.13,0.164,3.147,0.492c1.016,0.328,1.925,0.795,2.729,1.401c0.803,0.607,1.442,1.352,1.918,2.237
	c0.475,0.885,0.713,1.885,0.713,2.999C40.053,25.172,39.823,26.311,39.364,27.245z"/>
</svg>
