<?xml version="1.0" encoding="utf-8"?>
<!-- Generator: Adobe Illustrator 17.1.0, SVG Export Plug-In . SVG Version: 6.00 Build 0)  -->
<!DOCTYPE svg PUBLIC "-//W3C//DTD SVG 1.1//EN" "http://www.w3.org/Graphics/SVG/1.1/DTD/svg11.dtd">
<svg version="1.1" id="Icon" xmlns="http://www.w3.org/2000/svg" xmlns:xlink="http://www.w3.org/1999/xlink" x="0px" y="0px"
	 viewBox="0 0 64 64" enable-background="new 0 0 64 64" xml:space="preserve">
	 <title>settings icon</title>
<path id="Settings" fill-rule="evenodd" clip-rule="evenodd" fill="#808080" d="M62,38V26h-6.711c-0.568-2-1.445-4.292-2.576-6.206
	L57.505,15l-8.502-8.503l-4.798,4.791C42.292,10.157,40,9.279,38,8.711V2H26v6.711c-2,0.568-4.292,1.445-6.206,2.576L15,6.495
	l-8.503,8.502l4.791,4.798C10.157,21.708,9.279,24,8.711,26H2v12h6.711c0.568,2,1.445,4.292,2.576,6.206L6.495,49l8.502,8.503
	l4.798-4.791C21.708,53.843,24,54.721,26,55.289V62h12v-6.711c2-0.568,4.292-1.445,6.206-2.576L49,57.505l8.503-8.502l-4.791-4.798
	C53.843,42.292,54.721,40,55.289,38H62z M32,41.017c-4.98,0-9.017-4.037-9.017-9.017c0-4.98,4.037-9.017,9.017-9.017
	S41.017,27.02,41.017,32C41.017,36.98,36.98,41.017,32,41.017z"/>
</svg>
